<?xml version="1.0" encoding="UTF-8"?>
<svg width="62px" height="64px" viewBox="0 0 62 64" version="1.1" xmlns="http://www.w3.org/2000/svg" xmlns:xlink="http://www.w3.org/1999/xlink">
    <!-- Generator: Sketch 52.5 (67469) - http://www.bohemiancoding.com/sketch -->
    <title>Untitled</title>
    <desc>Created with Sketch.</desc>
    <g id="Page-1" stroke="none" stroke-width="1" fill="none" fill-rule="evenodd">
        <g id="noun_Book-of-Spells_1329414" fill="#000000">
            <path d="M59.47,15.45 C59.47,19.28 59.47,23.12 59.47,26.95 C59.5433509,27.8772337 59.7981777,28.7810195 60.22,29.61 C61.4166749,32.159059 61.8441194,35.0017385 61.45,37.79 C60.664429,43.65016 60.2835272,49.5574798 60.31,55.47 C60.31,55.87 60.31,56.27 60.31,56.67 C60.37,60.67 60.31,60.67 56.23,61.01 C54.64,61.14 53.05,61.34 51.47,61.61 C50.87,61.71 50.01,61.91 49.8,62.34 C49.03,63.83 47.8,63.64 46.5,63.61 C36.59,63.42 26.69,63.32 16.78,63.03 C13.6,62.94 10.43,62.38 7.26,62.03 C6.26,61.93 5.36,61.83 4.4,61.76 C2.5,61.62 1.61,60.85 1.4,59 C0.495830739,49.4490293 0.382110786,39.8396933 1.06,30.27 C1.37,25.27 1.37,20.21 1.44,15.18 C1.35398157,13.9754746 1.87093878,12.8067017 2.82,12.06 C6,9.65 9,7.19 12,4.67 C13.69,3.25 15.7,2.94 17.75,2.67 C24.25,1.89 30.75,1.06 37.26,0.38 C39.6514325,0.183191551 42.053016,0.139769317 44.45,0.25 C48.36,0.35 52.27,0.57 56.18,0.73 C59.04,0.85 59.47,1.26 59.5,4.15 C59.5,7.91 59.5,11.66 59.5,15.42 L59.47,15.45 Z M53.24,45.38 C52.99,45.7 52.53,46.01 52.51,46.38 C52.4,49.25 52.32,52.12 52.35,54.99 C52.4618084,56.2254742 52.6589456,57.4517343 52.94,58.66 C53.57,57.97 54.12,57.49 54.07,57.42 C53.2,56.14 53.86,54.76 53.75,53.42 C53.53,50.73 53.38,48.04 53.19,45.34 L55,45.07 C54.14,44.18 53.65,44.66 53.24,45.38 Z M35.34,44.53 C37.2679712,44.7064286 39.2046156,44.7698704 41.14,44.72 C43.96,44.48 46.83,45.12 49.64,44.09 C50.24,43.87 51.24,44.37 52.03,43.83 C54.14,42.4 56.29,41.05 58.36,39.57 C58.9472298,39.1620098 59.3776213,38.5658117 59.58,37.88 C60.0178334,35.480521 59.7717941,33.0062667 58.87,30.74 C57.35,32 56,32.93 54.81,34.06 C52.5645293,36.3282353 49.4805492,37.566171 46.29,37.48 C43.279536,37.5431345 40.2749052,37.7734895 37.29,38.17 C35.49,38.35 35.07,38.83 35.07,40.61 C35,41.79 35.21,43 35.34,44.52 L35.34,44.53 Z M20.25,26.19 L19.7,26.07 C19.22,27.74 18.7,29.4 18.26,31.07 C18.0402468,32.3523157 17.0958863,33.3903317 15.84,33.73 C14.7286488,34.2456945 13.6759376,34.8793327 12.7,35.62 C17.01,36.46 18.27,39.27 19.08,42.47 C19.37,43.63 19.72,44.77 20.08,45.9 C20.3617184,46.3983682 20.6970411,46.8644667 21.08,47.29 C21.96,44.22 22.84,41.59 23.42,38.9 C23.5004216,37.8729983 24.1665964,36.9847652 25.13,36.62 C25.89,36.32 26.78,36.04 27.03,34.91 C26.03,34.57 25.03,34.18 24.03,33.91 C22.5671636,33.6933924 21.4591488,32.4766667 21.38,31 C21.0861586,29.3783306 20.7089924,27.7728709 20.25,26.19 Z M13.1,9.09 C15.46,9.31 17.51,9.49 19.56,9.68 C23.76,10.09 27.98,10.37 32.16,10.96 C36.9012052,11.4807022 41.6713601,11.6911502 46.44,11.59 C46.95,11.59 47.44,11.11 47.99,10.86 L47.93,10.34 C47.12,10.21 46.31,10.03 45.49,9.95 C40.65,9.51 35.81,9.12 30.98,8.68 C26.15,8.24 21.14,7.76 16.22,7.26 C14.8788659,7.05939966 13.5794751,7.82154234 13.1,9.09 Z M21.1,6.25 C21.63,6.34 22,6.43 22.37,6.47 C27.53,7.05 32.68,7.71 37.85,8.17 C41.67,8.51 45.51,8.61 49.34,8.78 C50,8.78 50.81,9.06 51.17,8.13 C47.71,6.54 24,5 21.13,6.25 L21.1,6.25 Z M52.71,33.72 C53.41,33.04 54.14,32.66 54.16,32.24 C54.25,30.58 54.6,28.67 53.93,27.32 C53.3531072,25.9465707 53.1130963,24.4550747 53.23,22.97 C53.23,20.26 53.23,17.55 53.23,14.84 C53.1371425,13.007865 52.8488403,11.1908905 52.37,9.42 C51.56,11.53 51.89,29.65 52.71,33.72 Z M37.32,5 C38.65,5.22 39.48,5.39 40.32,5.49 C41.9,5.68 43.49,5.91 45.08,5.99 C47.54,6.11 50,6.14 52.46,6.14 C52.78,6.14 53.1,5.71 53.53,5.4 C51.17,4.36 40.83,4.06 37.32,5 Z M21.19,11.71 L21.06,11.38 C19.96,11.23 18.86,11.03 17.75,10.93 C15.9233333,10.7766667 14.0966667,10.6666667 12.27,10.6 C11.7212186,10.4908158 11.1522114,10.6290769 10.7147225,10.9779117 C10.2772336,11.3267464 10.0157483,11.8506842 10,12.41 L21.19,11.71 Z M50.47,59.36 L50.99,59.36 C51.79,58.05 51.4,56.53 51.48,55.11 C51.56,53.69 51.48,52.11 51.48,50.59 C51.48,47.38 51.48,47.38 50.48,46.51 L50.47,59.36 Z M50.69,34.73 C51.215608,33.5331076 51.4223174,32.2205027 51.29,30.92 C51.29,28.4 51.29,28.4 50.57,27.24 C50.32527,29.7328752 50.3621694,32.2453867 50.68,34.73 L50.69,34.73 Z M50.76,17 C51.0588625,15.1922087 50.851186,13.3369649 50.16,11.64 C49.29,12.18 48.67,12.52 49.23,13.57 C49.79,14.62 50.24,15.76 50.76,17 Z M53.84,10 C54.53,8.65 54.53,8.65 53.84,7.86 L53.84,10 Z" id="Shape" fill-rule="nonzero"></path>
            <path d="M42.1,41.85 C42.32,42.95 42.1,43.46 41.27,43.34 C41.03,43.34 40.85,42.84 40.65,42.58 L42.1,41.85 Z" id="Path"></path>
            <path d="M41.66,39.82 C41.2950198,40.0533651 40.9102005,40.2541404 40.51,40.42 C40.44,40.42 40.21,39.99 40.05,39.76 L41.26,39.13 L41.66,39.82 Z" id="Path"></path>
        </g>
    </g>
</svg>