<?xml version="1.0" encoding="UTF-8"?>
<svg width="23px" height="77px" viewBox="0 0 23 77" version="1.1" xmlns="http://www.w3.org/2000/svg" xmlns:xlink="http://www.w3.org/1999/xlink">
    <!-- Generator: Sketch 52.5 (67469) - http://www.bohemiancoding.com/sketch -->
    <title>Untitled</title>
    <desc>Created with Sketch.</desc>
    <g id="Page-1" stroke="none" stroke-width="1" fill="none" fill-rule="evenodd">
        <g id="noun_Candle_1329419" fill="#000000" fill-rule="nonzero">
            <path d="M10.42,26.66 C5.82,24.66 4.09,20.66 5.95,16.51 C6.98281868,14.1841454 7.50782478,11.6647979 7.49,9.12 C7.43922958,8.85574987 7.43922958,8.58425013 7.49,8.32 C7.66,7.94 7.91,7.38 8.2,7.32 C8.49,7.26 9,7.63 9.28,7.93 C9.64185732,8.42624173 9.9565583,8.9552072 10.22,9.51 C10.8986758,7.24243662 11.0928786,4.85748995 10.79,2.51 C10.671917,2.12745912 10.6079631,1.73027206 10.6,1.33 C10.6,0.98 10.87,0.41 11.08,0.38 C11.5037442,0.329814085 11.9280821,0.468821338 12.24,0.76 C14.4738752,3.17228019 16.389471,5.86083569 17.94,8.76 C19.4942659,11.8166792 20.2640293,15.2118854 20.18,18.64 C20.0248761,20.7909244 19.3000675,22.8618059 18.08,24.64 C17.23,25.98 15.72,26.34 14.31,26.74 C13.67,26.92 13.01,27 12.4,27.11 C11.78,29.11 11.88,29.11 13.32,30.11 C14.6189334,30.9446068 16.1485054,31.3471258 17.69,31.26 C18.5457791,31.2504505 19.3961994,31.39614 20.2,31.69 C21.4497537,32.1148021 22.1989429,33.3918293 21.96,34.69 C21.46,38.81 20.96,42.92 20.5,47.04 C20.1906386,49.2935229 20.0336157,51.5653447 20.03,53.84 C20.17,58.56 19.28,63.17 18.83,67.84 C18.63,69.9 18.52,71.98 18.37,74.05 C18.22,76.12 17.85,76.8 15.61,76.91 C13.733042,76.9267084 11.8575598,76.7996704 10,76.53 C7.94,76.31 5.89,76.01 3.84,75.72 C2.43323443,75.6300581 1.31837294,74.4979787 1.25,73.09 C0.930565313,71.1027447 0.716930927,69.0999224 0.61,67.09 C0.53,61.09 0.48,55.17 0.61,49.21 C0.68,46.28 1.26,43.36 1.5,40.43 C1.62276015,39.0957786 1.57234146,37.7512801 1.35,36.43 C0.86,33.68 2.16,31.99 4.85,31.43 C6.53073441,31.0419714 8.11795115,30.324835 9.52,29.32 C10.18,29 10.14,27.66 10.42,26.66 Z M18.18,51.48 C15.65,51 15.65,51 15.18,47.78 C14.762735,49.3006287 14.4289036,50.8429295 14.18,52.4 C13.966473,54.3338802 13.3242073,56.1957673 12.3,57.85 C11.39,59.2 10.09,59.19 9.23,57.85 C8.85483336,57.2251253 8.63852415,56.5178285 8.6,55.79 C8.44,52.72 8.38,49.64 8.27,46.57 C8.4064979,45.7247991 8.22478806,44.8590051 7.76,44.14 C5.91,46.27 4.51,45.98 3.56,43.39 C3.42762041,43.1567684 3.27000746,42.938793 3.09,42.74 C2.82,45.25 2.5,47.5 2.36,49.74 C2.22,51.98 2.28,54.43 2.19,56.74 C2.14,58.09 2.19,59.36 3.75,60.02 C2.96,60.88 1.64,61.32 2.5,62.68 L4.59,63.68 L2.59,64.74 C2.03,66.3 3.87,65.89 4.28,66.74 L2.59,67.74 C2.73,69.11 2.83,70.5 3.02,71.88 C3.33,74.08 3.57,74.38 5.68,74.67 C8.4,75.04 11.13,75.29 13.86,75.58 C14.1926781,75.6095565 14.5273219,75.6095565 14.86,75.58 C16.1,75.49 16.51,75.12 16.68,73.88 C16.74,73.42 16.68,72.94 16.74,72.48 C17.08,69.09 17.35,65.69 17.79,62.31 C18.2426961,58.7188216 18.3698802,55.0940759 18.17,51.48 L18.18,51.48 Z M10.51,56.74 L11.01,56.74 C11.4047293,55.926891 11.7357242,55.0843586 12,54.22 C12.67,50.95 13.24,47.66 13.86,44.37 C13.9071087,43.8357395 14.049346,43.3142027 14.28,42.83 C14.5209032,42.4131588 14.9220509,42.1132015 15.39,42 C15.8824929,42.0871075 16.2969088,42.4186403 16.49,42.88 C16.7753403,44.1818877 16.9724552,45.5015555 17.08,46.83 C17.1005778,47.4977193 17.0738443,48.1660576 17,48.83 C17.5088612,48.4547359 17.8642012,47.9075124 18,47.29 C18.37,45.29 18.65,43.2 19,41.16 C19.27,39.52 19.56,37.88 19.86,36.24 C19.94,35.78 20.14,35.34 20.19,34.88 C20.36,33.45 19.93,32.88 18.53,32.7 C18.1338233,32.6323281 17.7313579,32.608851 17.33,32.63 C15.7066751,32.7701056 14.0899328,32.2954329 12.8,31.3 C11.8190776,30.5075225 10.4239342,30.4868843 9.42,31.25 C8.13045081,32.2003759 6.59782918,32.7655735 5,32.88 C3.26,33.01 2.1,35.96 3.43,36.88 C4.76,37.8 4.69,38.88 4.88,40.15 C5.07,41.42 4.88,42.49 5.58,43.73 C5.92,43.35 6.1,43.18 6.24,42.98 C6.38,42.78 6.49,42.5 6.65,42.29 C7.45,41.29 8.38,41.29 9,42.39 C9.34186163,42.9644789 9.55668206,43.6055304 9.63,44.27 C9.78,46.8 9.82,49.34 9.93,51.88 C9.88143587,53.5230834 10.0768968,55.1642815 10.51,56.75 L10.51,56.74 Z M15.87,24 L16.28,24.27 C16.42,24.04 16.56,23.81 16.7,23.58 C18.3953858,20.6409108 18.8625501,17.1515523 18,13.87 C17.2368823,10.5859 15.7545949,7.51203205 13.66,4.87 C13.4085046,4.60621455 13.1340949,4.36526938 12.84,4.15 C12.45,6.35 12.13,8.39 11.7,10.4 C11.5801584,11.1198597 11.2495579,11.7880207 10.75,12.32 C10.36,12.67 9.55,12.56 9.02,12.63 C8.74,13.53 8.5,14.36 8.22,15.18 C7.86,16.26 7.41,17.31 7.13,18.41 C6.63624177,19.8189658 6.89240135,21.3822927 7.81,22.56 C7.86576827,20.7911755 8.48208133,19.0858092 9.57,17.69 C10.8468349,16.2158369 11.6454619,14.3884111 11.86,12.45 C11.9735935,11.9512596 12.137777,11.4654104 12.35,11 C13.69,11.4 13.67,11.4 13.92,12.13 C14.32,13.33 14.77,14.52 15.16,15.73 C16,18.44 16.92,21.11 15.87,24 Z M12.47,25 C15.03,23 15.19,17.85 12.92,15.59 C12.09,16.94 11.22,18.27 10.43,19.64 C9.60746798,20.9511632 9.4912545,22.5856496 10.12,24 C11.73,23.65 11.73,23.65 12.47,25 Z" id="Shape"></path>
        </g>
    </g>
</svg>