<?xml version="1.0" encoding="UTF-8"?>
<svg width="68px" height="58px" viewBox="0 0 68 58" version="1.1" xmlns="http://www.w3.org/2000/svg" xmlns:xlink="http://www.w3.org/1999/xlink">
    <!-- Generator: Sketch 52.5 (67469) - http://www.bohemiancoding.com/sketch -->
    <title>Untitled</title>
    <desc>Created with Sketch.</desc>
    <g id="Page-1" stroke="none" stroke-width="1" fill="none" fill-rule="evenodd">
        <g id="noun_Crystal-Ball_1329423" fill="#000000">
            <path d="M32.63,13.9 C39.48,13.34 45.09,16.01 49.91,20.61 C51.3092784,22.0216284 52.3395848,23.7559776 52.91,25.66 C54.306148,29.9950708 54.4517171,34.6359521 53.33,39.05 C52.4023183,42.5324725 50.2781299,45.5771425 47.33,47.65 C45.01,49.44 44.97,49.48 46.83,51.75 C47.158178,52.1421296 47.458893,52.5564479 47.73,52.99 C48.1731929,53.5217525 48.2921174,54.252461 48.0404188,54.8973086 C47.7887202,55.5421563 47.206233,55.9990879 46.52,56.09 C45.9722186,56.2667377 45.4044753,56.3742394 44.83,56.41 C40.43,56.57 36.11,57.41 31.67,57.41 C28.73,57.41 25.81,57.25 22.9,56.93 C22.2185627,56.8298699 21.5611232,56.606205 20.96,56.27 C20.5738837,56.0918735 20.2786026,55.7620238 20.1441352,55.3586216 C20.0096678,54.9552193 20.0479828,54.514171 20.25,54.14 C20.7314019,53.0343079 21.2859643,51.9619313 21.91,50.93 C22.1796941,50.6160973 22.2954904,50.1983461 22.2258872,49.7903937 C22.1562839,49.3824412 21.9085206,49.0267192 21.55,48.82 C20.2595185,47.7822019 19.0677773,46.6272841 17.99,45.37 C13.92,40.37 13.28,34.69 14.61,28.59 C15.6177853,24.4044806 17.9288821,20.6471974 21.21,17.86 C23.4632096,15.7469402 26.3623058,14.4541476 29.44,14.19 L32.63,13.9 Z M52.71,32.76 C52.71,32.06 52.71,31.35 52.71,30.65 C52.47,26.76 51.33,23.15 48.38,20.53 C45.16,17.67 41.38,15.58 36.95,15.32 C33.95,15.14 30.83,14.68 27.95,16.1 C27.7153607,16.19199 27.4546393,16.19199 27.22,16.1 C26.3519397,15.8154597 25.3981809,16.0092514 24.71,16.61 C19.7814478,19.3771659 16.383425,24.240425 15.48,29.82 C14.33,36.44 15.86,42.39 21.12,47.01 C23.0465505,48.8922131 25.4784429,50.1741678 28.12,50.7 C33.65,51.52 39.12,51.3 44.12,48.41 C47.2119481,46.7253561 49.7192818,44.1413029 51.31,41 C52.6,38.37 52.7,35.58 52.71,32.76 Z M44.3,55.11 C44.11,52.77 43.62,51.52 42.66,50.82 C42.31,53.19 42.78,54.55 44.3,55.11 Z M32.78,52.48 C31.64,53.91 31.53,54.73 32.27,55.93 C32.7415667,54.8451829 32.9175279,53.6548572 32.78,52.48 Z M45.93,54.78 L46.45,54.57 C46.57,53.42 45.84,52.72 44.78,52.19 L45.93,54.78 Z M37.77,52.33 C37.198133,53.3958003 37.2675399,54.6913958 37.95,55.69 C38.3682617,54.5906793 38.2991773,53.3653405 37.76,52.32 L37.77,52.33 Z M39.35,52.26 L39.54,55.26 C40.23,54 40.23,54 39.34,52.25 L39.35,52.26 Z M28.06,55.59 L28.56,55.7 L29.12,52.7 C27.88,53.45 28.26,54.58 28.06,55.59 Z M23,52.36 L22.47,52.07 L21.31,54.64 L21.81,54.87 L23,52.36 Z M30.85,53.06 C30,54.54 30,54.54 30.54,55.77 L30.85,53.06 Z M34.39,56.14 C34.8812049,55.4789332 34.7903395,54.5529713 34.18,54 C33.7743178,54.6779948 33.8467638,55.5392974 34.36,56.14 L34.39,56.14 Z M23.61,53.75 L23.95,53.84 L24.43,52.38 L24,52.26 L23.61,53.75 Z M24.85,55.25 L25.05,55.3 L25.47,53.94 L25.2,53.87 L24.85,55.25 Z" id="Shape" fill-rule="nonzero"></path>
            <path d="M45.57,9.08 C46,6.26 47.63,3.94 48.19,0.91 C48.6911823,1.61413183 48.7824744,2.53085672 48.43,3.32 C48.08,4.87 47.54,6.32 47.07,7.88 C46.87,8.5 46.68,9.12 45.57,9.08 Z" id="Path"></path>
            <path d="M59,9.13 C57.8997644,11.2846809 56.484178,13.2631314 54.8,15 C54.65,15.16 54.24,15.08 53.9,15.12 C54.29,13.63 56.4,11.14 59,9.13 Z" id="Path"></path>
            <path d="M60.16,24.58 L67.16,21.3 C66,23.31 62.68,25.09 60.16,24.58 Z" id="Path"></path>
            <path d="M17.36,13 C15.36,11.86 14.73,9.65 13.17,8.16 L13.41,7.85 C13.68,7.85 14.05,7.85 14.21,7.99 C15.6502063,9.38028096 16.73119,11.0995597 17.36,13 Z" id="Path"></path>
            <path d="M29.31,0.61 C30.82,3.25 31.31,6.3 30.57,7.33 C29.75,6.28 29.07,2.86 29.31,0.61 Z" id="Path"></path>
            <path d="M67,34.15 C65.25,35 63.26,34.67 61.2,33.5 C62.2,32.5 63.2,33.36 64.11,33.5 C65.02,33.64 66.08,33.95 67,34.15 Z" id="Path"></path>
            <path d="M6.73,33 L0.84,33.41 C1.02,32.12 1.84,32.46 2.45,32.41 C3.20185277,32.2984278 3.96006121,32.2349655 4.72,32.22 C5.34,32.17 6.1,31.79 6.73,33 Z" id="Path"></path>
            <path d="M4.52,21.72 C6.3,21.1 7.67,21.87 8.99,23.09 C7.9,23.41 7.2,23.22 4.52,21.72 Z" id="Path"></path>
            <path d="M40.14,22.66 C41.24,21.43 42.14,21.2 43.34,21.8 C44.7051717,22.3910884 45.7304378,23.5670209 46.13,25 C46.8114697,27.3321423 47.0054973,29.7796141 46.7,32.19 C46.4770927,33.1128943 46.0873534,33.9872658 45.55,34.77 C45.1286914,35.5362045 44.2087618,35.8769192 43.39,35.57 C42.4985654,35.3222116 41.9129167,34.471125 42,33.55 C42.0507435,32.7891788 42.1408642,32.031497 42.27,31.28 C42.62,28.77 42.66,26.28 41.27,24.05 C40.9220203,23.5640651 40.5446493,23.0998654 40.14,22.66 Z M42.02,22.72 C42.53,23.92 43.02,24.81 43.29,25.72 C43.7684018,27.6416376 43.8263888,29.6438966 43.46,31.59 C43.3619833,32.2823868 43.3118643,32.9807123 43.31,33.68 C43.3505982,33.9816825 43.5377916,34.2437533 43.81,34.38 C44.1118927,34.4289245 44.4177602,34.3194164 44.62,34.09 C45.0944092,33.3382851 45.4328995,32.5089838 45.62,31.64 C45.838885,29.3498273 45.555636,27.0394707 44.79,24.87 C44.3647922,23.666258 43.2723575,22.8244176 42,22.72 L42.02,22.72 Z" id="Shape" fill-rule="nonzero"></path>
            <path d="M38.27,22 C36.27,20.34 36.02,19.65 36.8,18.49 C37.25,17.83 38.52,17.77 39.52,18.37 C39.8402044,18.5315659 40.0676657,18.8321635 40.1361223,19.1842262 C40.2045789,19.5362889 40.1063314,19.9002188 39.87,20.17 C39.3819394,20.8181468 38.847183,21.4297745 38.27,22 Z M38.65,19.25 L37.49,20 C38.45,20.53 38.79,20.29 38.65,19.26 L38.65,19.25 Z" id="Shape" fill-rule="nonzero"></path>
        </g>
    </g>
</svg>