<?xml version="1.0" encoding="UTF-8"?>
<svg width="572px" height="276px" viewBox="0 0 572 276" version="1.1" xmlns="http://www.w3.org/2000/svg" xmlns:xlink="http://www.w3.org/1999/xlink">
    <!-- Generator: Sketch 52.4 (67378) - http://www.bohemiancoding.com/sketch -->
    <title>logo inicio</title>
    <desc>Created with Sketch.</desc>
    <g id="Page-1" stroke="none" stroke-width="1" fill="none" fill-rule="evenodd">
        <g id="home" transform="translate(-674.000000, -402.000000)">
            <g id="logo-inicio" transform="translate(674.000000, 402.000000)">
                <path d="M305.956981,50.0347413 L305.956981,170.318378 C305.956981,171.097879 306.212057,171.74805 306.734858,172.265375 L335.617494,189.321629 C336.396074,189.84528 336.784661,190.489827 336.784661,191.267923 C336.784661,192.046722 336.396074,192.697595 335.617494,193.21492 L307.59776,209.563367 C306.81918,209.825544 306.041303,209.825544 305.262724,209.563367 C305.262724,209.563367 273.656464,191.236996 273.656464,190.457495 L273.656464,68.7195849 L244.469563,51.9810353 C243.690983,51.7251844 242.973537,51.7870385 242.329171,52.1757349 C241.678481,52.5651343 241.356649,53.1485305 241.356649,53.9266263 L241.356649,192.404491 C241.356649,193.183993 227.496807,201.192687 227.496807,201.192687 C226.718227,201.454864 225.94035,201.454864 225.16177,201.192687 C225.16177,201.192687 209.056133,190.986768 209.056133,190.20797 L209.056133,70.2764795 C209.056133,69.2432357 208.666843,68.5923624 207.888966,68.3301855 L179.868529,51.9810353 C179.090652,51.7251844 178.702065,51.1410854 178.702065,50.229441 C178.702065,49.3234197 179.090652,48.7393207 179.868529,48.4778467 L207.888966,32.1279936 C208.666843,31.6106688 209.311911,31.6106688 209.83401,32.1279936 L240.18878,49.6460448 C240.966657,49.9068159 241.611726,49.9068159 242.134526,49.6460448 L253.031129,43.4177636 L272.489297,32.1279936 C273.267174,31.6106688 273.912243,31.6106688 274.434341,32.1279936 L305.568393,50.0347413 L305.956981,50.0347413 Z M149.005721,215.790307 L149.005721,104.513947 C149.005721,103.70407 148.604658,103.167705 147.803237,102.895614 L118.947837,85.9002791 C118.408865,85.3624925 117.745353,85.3624925 116.943931,85.9002791 C116.142509,86.4444595 115.741447,87.1143839 115.741447,87.9228398 L115.741447,199.199199 C115.741447,200.009076 116.142509,200.552546 116.943931,200.818243 L145.799331,217.813578 C146.33197,218.357758 147.001815,218.357758 147.803237,217.813578 C148.604658,217.275791 149.005721,216.598763 149.005721,215.790307 Z M210.490731,219.075991 C211.291449,219.620172 211.693215,220.290096 211.693215,221.099262 C211.693215,221.908429 211.291449,222.585457 210.490731,223.122533 L181.635331,239.71293 C180.832502,240.25569 180.031784,240.25569 179.230363,239.71293 L149.005721,219.836139 L116.943931,238.449807 C116.142509,238.993277 115.341088,238.993277 114.539666,238.449807 L83.6803603,220.241787 C82.8789387,219.976091 82.4778761,219.431911 82.4778761,218.622744 L82.4778761,104.513947 C82.4778761,103.70407 82.8789387,103.167705 83.6803603,102.895614 L115.741447,83.877008 L147.803237,65.26334 C148.604658,64.7255533 149.40608,64.7255533 150.207502,65.26334 L181.067511,83.47278 C181.868229,83.7441598 182.269995,84.2819464 182.269995,85.0911128 L182.269995,199.199199 C182.269995,200.009076 182.669651,200.685394 183.472479,201.223181 L210.490731,219.075991 Z M85.4971489,73.3150353 C84.9646178,73.5820284 84.4384097,73.7130594 83.912904,73.7130594 L56.5816934,73.7130594 C54.4649174,73.7130594 53.412501,74.7739873 53.412501,76.8902075 L53.412501,228.531752 C53.412501,229.859673 53.9387092,230.783934 54.996746,231.312285 L98.1064739,255.740397 C99.1588902,256.274384 99.6914213,257.131016 99.6914213,258.321566 C99.6914213,259.513525 99.1588902,260.50612 98.1064739,261.301463 L73.1519819,275.600039 C72.0939452,276.13332 71.1715001,276.13332 70.3790264,275.600039 L24.1008086,249.186033 C23.0427719,248.658386 22.5165637,247.733421 22.5165637,246.4055 L22.5165637,76.8902075 C22.5165637,74.7739873 21.4578244,73.7130594 19.3480739,73.7130594 L3.10798279,73.7130594 C1.52303533,73.7130594 0.533145709,72.986049 0.136908843,71.5285059 C-0.259328022,70.075894 0.205055964,68.9466328 1.52303533,68.1519935 L20.9323188,57.9548275 C21.9847352,57.4271814 22.5165637,56.5029202 22.5165637,55.1742946 L22.5165637,39.5548428 C22.5165637,38.5002551 23.0427719,37.5689492 24.1008086,36.7743099 L49.0553006,22.4757346 C50.107717,21.9480885 51.1657537,21.9480885 52.224493,22.4757346 C53.2762068,23.0097209 53.8087379,23.9346866 53.8087379,25.2562675 L53.8087379,52.6614593 C53.8087379,54.7847241 54.7311829,55.8393118 56.5816934,55.8393118 L104.113256,55.8393118 C105.698204,55.8393118 106.688796,56.6339511 107.08433,58.2225251 C107.480567,59.8110992 107.016183,61.0030581 105.698204,61.7969929 L85.4971489,73.3150353 Z M430.861691,18.2947413 L430.861691,138.578378 C430.861691,139.357879 431.119149,140.00805 431.64683,140.525375 L464.821229,157.581629 C465.607076,158.10528 466,158.749827 466,159.527923 C466,160.306722 465.607076,160.957595 464.821229,161.47492 L436.540646,177.823367 C435.754798,178.085544 434.96966,178.085544 434.183103,177.823367 C434.183103,177.823367 398.259656,159.496996 398.259656,158.717495 L398.259656,36.9795849 L368.800302,20.2410353 C368.014455,19.9851844 367.290312,20.0470385 366.639931,20.4357349 C365.983166,20.8251343 365.65833,21.4085305 365.65833,22.1866263 L365.65833,160.664491 C365.65833,161.443993 351.669109,169.452687 351.669109,169.452687 C350.883261,169.714864 350.098123,169.714864 349.312276,169.452687 C349.312276,169.452687 333.056295,159.246768 333.056295,158.46797 L333.056295,38.5364795 C333.056295,37.5032357 332.663372,36.8523624 331.878233,36.5901855 L303.596232,20.2410353 C302.811094,19.9851844 302.418879,19.4010854 302.418879,18.489441 C302.418879,17.5834197 302.811094,16.9993207 303.596232,16.7378467 L331.878233,0.387993592 C332.663372,-0.129331197 333.314462,-0.129331197 333.841434,0.387993592 L364.479559,17.9060448 C365.264697,18.1668159 365.915788,18.1668159 366.443469,17.9060448 L377.441788,11.6777636 L397.081594,0.387993592 C397.866733,-0.129331197 398.517823,-0.129331197 399.044795,0.387993592 L430.469477,18.2947413 L430.861691,18.2947413 Z" id="Fill-8" fill="#FFFFFF"></path>
                <path d="M365.573767,206.513554 C362.465824,207.954055 361.369598,210.313228 362.510312,212.854582 C363.618356,215.32038 366.202863,215.928356 369.070985,214.598718 C372.08856,213.201997 373.36135,210.941682 372.162244,208.269694 C371.129971,205.971954 368.516963,205.151433 365.573767,206.513554 M370.504351,217.298244 C366.366914,219.216088 362.451921,217.869502 360.514583,213.554355 C358.719053,209.555553 360.185785,205.648547 364.140401,203.816146 C368.240995,201.914543 372.286673,203.404473 374.158669,207.571334 C376.037615,211.756553 374.275451,215.550578 370.504351,217.298244 Z M387.286076,229.120159 C386.690599,228.916485 385.50969,229.032572 384.13005,230.015492 L377.406189,234.814697 C376.49719,235.462562 375.632673,236.506653 375.670698,237.409633 L375.63626,237.433962 L372.82676,233.736544 C373.137412,233.464052 373.417214,233.113704 373.932337,231.915988 L376.218106,226.668421 C376.685877,225.580536 377.482237,224.206951 378.406302,222.795134 L378.357516,222.730487 C377.185217,223.91708 376.033006,224.788779 375.09244,225.460973 L372.066272,227.620755 C370.670848,228.616187 370.174378,229.599106 370.209533,230.226812 L370.176531,230.250447 L367.316091,226.488381 L367.350529,226.464747 C367.958919,226.683714 369.128349,226.552334 370.506554,225.568024 L377.145757,220.830685 C378.52468,219.84568 379.001779,218.802979 378.964472,218.173883 L378.998909,218.150943 L381.611113,221.586991 C381.294004,222.090268 380.925239,222.831976 380.633241,223.541013 L378.529702,228.585601 C377.829479,230.29007 377.160824,231.421748 375.98422,233.0143 L376.034441,233.079643 C377.434169,231.678947 378.502439,230.867031 379.712046,230.003674 L382.570333,227.962761 C383.964321,226.967329 384.462226,225.985799 384.425636,225.356703 L384.459356,225.333764 L387.320513,229.095829 L387.286076,229.120159 Z M371.554018,236.428103 C370.276972,236.284211 369.488504,235.89285 368.880831,235.093446 C368.187065,234.183515 368.56157,233.413307 368.004835,232.67994 C367.633201,232.191956 367.066422,232.093942 366.673981,232.223932 L366.647436,232.191261 L367.385683,230.332473 C368.486956,230.552135 369.17283,230.942105 369.730282,231.675472 C370.472117,232.652135 370.051696,233.42999 370.634258,234.194638 C370.992979,234.668719 371.531778,234.761172 372.158104,234.664548 L372.183215,234.697915 L371.554018,236.428103 Z M387.472015,237.374942 L390.890332,234.679245 C391.391545,235.312749 391.777035,235.725041 392.717091,236.58637 L398.346154,241.742589 L398.316848,241.774925 C397.666098,241.675711 396.4698,242.01598 395.243444,243.294746 L389.345364,249.455604 C388.104731,250.751273 387.835714,251.908777 387.996523,252.554039 L387.964962,252.584906 L382.241217,247.339026 C381.60249,246.756233 380.854804,246.16021 380.429487,245.916951 L382.831101,242.87584 L382.879193,242.889803 C382.529772,244.005416 383.03399,245.198196 384.277629,246.336592 L386.383174,248.266499 L389.013226,245.520827 L387.801148,244.408889 C386.477104,243.197736 386.014215,242.803082 385.206413,242.239397 L388.178372,240.042712 L388.211436,240.072109 C387.809414,241.022364 388.116002,241.828575 389.009469,242.647279 L390.476286,243.990718 L393.837493,240.481461 L392.097901,238.888883 C390.694956,237.603503 389.086116,237.096407 387.488547,237.419038 L387.472015,237.374942 Z M409.371795,249.713594 L407.783731,252.691448 L407.740167,252.686625 C407.622406,250.716777 406.878406,249.504139 405.51361,248.616019 C404.161748,247.737545 403.213538,247.909106 402.612484,248.804805 C401.84534,249.948543 402.555986,251.0661 403.360569,252.295274 C404.385016,253.871704 405.519736,255.641742 403.975237,257.948511 C402.875233,259.590396 400.470334,260.144351 397.929976,258.400494 C397.078426,257.816223 396.375267,257.187856 395.589744,256.286645 L397.20027,253.41972 L397.232944,253.442457 C397.202993,255.020954 397.960608,255.926988 398.910859,256.57947 C400.156533,257.435207 401.083641,257.441408 401.652022,256.596006 C402.29528,255.634163 401.633643,254.622024 400.86786,253.443835 C399.819588,251.828821 398.571873,249.906514 400.238897,247.418539 C401.472999,245.576155 403.827526,244.989128 406.505384,246.777081 C407.844313,247.67209 408.934107,248.759331 409.371795,249.713594 Z M419.004184,256.261053 C418.456234,256.345719 417.587287,256.989607 416.922725,258.508614 L413.724677,265.836136 C413.051964,267.375065 413.120301,268.52268 413.407442,269.075499 L413.391769,269.113208 L409.371795,266.852128 L409.386842,266.815842 C409.934165,266.729753 410.804365,266.087288 411.4683,264.566857 L414.667603,257.242182 C415.340315,255.70183 415.271351,254.554215 414.982956,253.999973 L414.999257,253.962264 L419.019231,256.223344 L419.004184,256.261053 Z M432.102887,261.777428 C429.462748,260.987348 427.49649,262.211635 426.500225,265.22947 C425.450702,268.396542 426.299978,270.277877 429.119771,271.122655 L430.854537,271.640596 L433.936357,262.326433 L432.102887,261.777428 Z M438.301321,261.634944 C437.70413,261.80579 436.829291,262.552652 436.320861,264.090269 L433.868898,271.492034 C433.410175,272.879739 433.609002,274.112804 434.015888,274.585501 L434.003106,274.622642 L428.288248,272.912152 C424.149095,271.67301 422.230414,268.441111 423.583148,264.35633 C424.942273,260.252642 428.046815,258.524595 432.914528,259.981854 L438.314103,261.597803 L438.301321,261.634944 Z M477.376784,268.675639 L477.817571,266.476961 L473.743432,267.053181 L474.872348,269.030552 C475.571552,270.241915 476.31801,271.486851 476.780208,272.972278 L476.865855,272.961315 C476.807527,271.41765 477.098431,270.02472 477.376784,268.675639 Z M467.262317,263.034032 L467.25641,262.994978 L472.052642,262.315984 L472.058549,262.355038 C471.740326,262.662675 471.702671,263.493089 472.45725,264.777764 L472.725266,265.222433 L478.200029,264.448202 L478.315209,263.94735 C478.642292,262.51057 478.297489,261.732228 477.959331,261.519143 L477.952686,261.480089 L482.410022,260.849057 L482.416667,260.888111 C481.921981,261.44172 481.206534,262.772986 480.880189,264.370094 L479.182016,272.914724 C478.947963,274.137735 479.487687,274.90717 479.941764,275.16479 L479.948409,275.204529 L474.324502,276 L474.317857,275.961631 C474.665614,275.56972 474.957995,274.701622 474.320811,273.60194 L469.866429,265.930203 C469.043922,264.495478 467.929773,263.402648 467.262317,263.034032 Z M488.784534,260.409764 L495.763537,258.09434 L495.777784,258.133201 C495.396671,258.627799 495.148769,259.773146 495.688739,261.372816 L498.31094,269.153546 C498.830251,270.693865 499.697195,271.447067 500.321936,271.608871 L500.333333,271.648439 L495.516347,273.245283 L495.503525,273.207128 C495.883213,272.712531 496.131115,271.567183 495.59257,269.968926 L492.66619,261.290854 L490.719307,261.936658 C489.008928,262.503326 487.830683,263.545514 487.38047,264.996098 L487.332742,264.989739 L486.551282,260.977845 C487.342715,260.866914 487.880548,260.710055 488.784534,260.409764 Z M511.07527,257.984935 L510.730346,255.627659 L507.359118,257.550297 L509.002301,259.16613 C510.015175,260.153747 511.082798,261.159625 511.981382,262.502988 L512.051872,262.462811 C511.486579,260.929522 511.280582,259.432758 511.07527,257.984935 Z M500.35318,255.639346 L500.333333,255.602092 L504.302703,253.339778 L504.321866,253.377033 C504.145297,253.790488 504.38825,254.638581 505.475036,255.682445 L505.858286,256.042574 L510.389527,253.458847 L510.323143,252.919749 C510.131518,251.365276 509.572385,250.697612 509.204876,250.593153 L509.185029,250.555898 L512.873805,248.45283 L512.891599,248.490085 C512.64454,249.211074 512.459075,250.786001 512.708187,252.498259 L514.063248,261.654894 C514.263769,262.960272 514.991943,263.557079 515.475796,263.668112 L515.49359,263.704637 L510.84053,266.358491 L510.822052,266.321236 C510.996567,265.812818 510.96098,264.842733 510.039812,263.947888 L503.593692,257.695663 C502.396721,256.522503 501.059454,255.790557 500.35318,255.639346 Z M523.411371,241.599604 C523.347848,242.16659 523.700755,243.199132 524.858933,244.030273 L531.887563,249.086444 C532.725558,249.689186 533.816362,250.178093 534.764721,250.145985 L534.788462,250.181012 L531.33767,253.229746 L531.315854,253.196179 C531.333178,252.667868 530.989896,251.923563 530.362362,251.455817 L526.154424,248.345787 C525.379953,247.765666 524.02158,246.679126 523.038573,245.587478 L522.9789,245.640017 C523.637232,247.04982 524.271824,248.773398 524.574682,249.770914 L526.212814,255.072268 C526.478457,255.911436 526.955844,256.541177 527.409491,256.650634 L527.431948,256.6842 L524.277599,259.471698 L524.253857,259.439591 C524.530408,258.63107 524.430311,257.481775 524.060079,256.250022 L521.365151,247.119142 C520.917921,245.63272 520.149225,244.994222 519.651946,244.92344 L519.628205,244.888414 L523.38763,241.566038 L523.411371,241.599604 Z M538.121043,234.821662 L537.00627,232.680106 L534.232844,235.715832 L536.414937,236.687917 C537.758942,237.278588 539.161351,237.867034 540.503897,238.840603 L540.56084,238.776787 C539.49425,237.504172 538.799251,236.140284 538.121043,234.821662 Z M526.549892,236.353252 L526.519231,236.325055 L529.783244,232.752085 L529.815366,232.780283 C529.770833,233.241096 530.294273,233.969789 531.727343,234.587916 L532.231072,234.797174 L535.958661,230.720353 L535.715557,230.223922 C535.019098,228.799928 534.237224,228.356924 533.832782,228.386606 L533.80066,228.357666 L536.83617,225.037736 L536.866832,225.067418 C536.849311,225.84657 537.17856,227.421942 537.984525,228.978762 L542.324619,237.292687 C542.954644,238.474773 543.882526,238.790144 544.405236,238.724843 L544.435897,238.754525 L540.606832,242.943396 L540.576171,242.914456 C540.584931,242.364597 540.237432,241.44594 539.016803,240.911664 L530.484814,237.183606 C528.896974,236.478659 527.310595,236.248623 526.549892,236.353252 Z M543.519398,225.020695 L540.301282,222.26445 C540.914326,221.569684 541.114326,221.293692 541.967949,219.941696 L546.57447,212.641509 L546.609253,212.664325 L553.273021,225.672037 L554.694036,223.419202 C555.571572,222.031144 555.921572,220.760106 555.433166,219.552363 L555.473021,219.526603 L558.217949,222.000233 C557.697659,222.628024 557.280992,223.246983 556.416499,224.616642 L552.676644,230.54717 L552.639688,230.522882 L545.97592,217.51517 L544.236065,220.273623 C543.202007,221.913387 543.003456,223.616445 543.560702,224.994936 L543.519398,225.020695 Z M552.271329,198.88324 C552.398373,199.481256 553.088532,200.398121 554.606882,201.021199 L562.017336,204.06349 C563.018582,204.474234 564.331601,204.642709 565.072578,204.137981 L565.108974,204.153297 L563.405895,208.415289 C563.021329,208.301813 562.587319,208.254473 561.32031,208.456364 L555.756461,209.319623 C554.605509,209.502717 553.050076,209.563981 551.399874,209.542399 L551.369659,209.616194 C552.955308,209.962194 554.26764,210.456479 555.305282,210.882539 L558.639334,212.251918 C560.177599,212.88335 561.253698,212.778228 561.763248,212.420393 L561.802391,212.435709 L560.067723,216.773585 L560.031326,216.758269 C559.910463,216.139368 559.21275,215.240604 557.695773,214.618222 L550.37734,211.614221 C548.85693,210.98975 547.739628,211.144301 547.229391,211.502136 L547.192308,211.48682 L548.775897,207.524184 C549.35824,207.524184 550.168576,207.441339 550.910239,207.308369 L556.21176,206.401947 C557.996559,206.085883 559.285543,206.046201 561.213868,206.182651 L561.245457,206.107464 C559.365203,205.685581 558.144892,205.227497 556.812644,204.680999 L553.662635,203.388199 C552.125743,202.756767 551.047584,202.861193 550.536661,203.221116 L550.500264,203.2058 L552.234933,198.867925 L552.271329,198.88324 Z M557.774142,178.21484 C558.004236,178.747871 558.815073,179.467861 560.334987,179.75095 L567.751781,181.137229 C568.752527,181.324188 569.995033,181.223416 570.58485,180.609502 L570.621795,180.616794 L569.851143,184.919495 C569.475215,184.889661 569.065584,184.92944 567.93456,185.365677 L562.960648,187.258467 C561.931384,187.652937 560.506747,188.013595 558.977759,188.315911 L558.964796,188.39149 C560.495081,188.403423 561.798513,188.607619 562.836851,188.801871 L566.174181,189.425729 C567.71354,189.71346 568.687064,189.405177 569.090862,188.971592 L569.127158,188.977559 L568.34484,193.358491 L568.308543,193.351198 C568.080394,192.800267 567.266964,192.098177 565.747698,191.815087 L558.424886,190.446046 C556.904323,190.162956 555.902281,190.523614 555.498483,190.957199 L555.461538,190.950569 L556.176449,186.950184 C556.713118,186.834827 557.445529,186.598808 558.105347,186.330967 L562.828425,184.450773 C564.41834,183.807688 565.600568,183.518631 567.406965,183.26869 L567.421224,183.191785 C565.605105,183.166592 564.394358,182.979634 563.060463,182.729029 L559.907207,182.140309 C558.369793,181.853904 557.394325,182.160861 556.991823,182.594446 L556.953583,182.588479 L557.735901,178.207547 L557.774142,178.21484 Z M565.225496,165.029555 L563.130819,164.266427 L563.166047,168.339606 L565.246497,167.534893 C566.523491,167.03222 567.838422,166.488692 569.354556,166.261796 L569.353201,166.177166 C567.835035,166.000611 566.510619,165.505234 565.225496,165.029555 Z M558.387989,174.075472 L558.348019,174.075472 L558.307372,169.28002 L558.346664,169.278561 C558.604773,169.638238 559.413649,169.798743 560.769904,169.255944 L561.240055,169.05969 L561.193311,163.58501 L560.719096,163.3997 C559.355388,162.861278 558.549222,163.081608 558.295856,163.380731 L558.256563,163.380731 L558.217949,158.924528 L558.257241,158.924528 C558.734166,159.492132 559.943415,160.393149 561.466323,160.951269 L569.609955,163.904561 C570.777879,164.317497 571.600304,163.90602 571.913286,163.499651 L571.951224,163.498192 L572,169.122433 L571.961385,169.122433 C571.621305,168.72117 570.80972,168.306046 569.652634,168.762756 L561.561844,171.963372 C560.050452,172.550674 558.835783,173.475767 558.387989,174.075472 Z M567.078472,153.415094 L567.052373,153.379138 C567.760488,152.796377 568.269424,151.768573 568.064751,150.602373 L567.807879,149.144452 L559.246623,150.609835 C557.553603,150.900198 556.607847,151.623392 556.385316,152.321484 L556.344794,152.328947 L555.461538,147.293049 L555.500687,147.286943 C555.93476,147.793721 557.107168,148.234015 558.78027,147.947044 L567.341526,146.480982 L567.081219,145.002031 C566.875859,143.836508 566.046863,143.037332 565.181465,142.725938 L565.193141,142.683197 L568.853224,142.396226 C568.892373,143.312091 568.99677,144.135012 569.164355,145.086833 L569.995412,149.830333 C570.162997,150.78351 570.346379,151.592185 570.621795,152.467344 L567.078472,153.415094 Z M556.739573,127.399144 C557.801242,126.964032 559.001355,127.484555 559.437613,128.547356 C559.872262,129.610157 559.386904,130.771261 558.303503,131.216848 C557.241029,131.65196 556.058624,131.175754 555.623975,130.111341 C555.179668,129.028396 555.677904,127.835868 556.739573,127.399144 Z M547.631322,109.497433 C550.374223,107.469812 550.978848,104.956457 549.369275,102.716765 C547.807326,100.544264 545.172789,100.474973 542.641784,102.346516 C539.979639,104.313946 539.183135,106.769208 540.874843,109.121585 C542.329809,111.147107 545.034747,111.41657 547.631322,109.497433 Z M540.716784,100.015136 C544.367313,97.3156072 548.444391,97.8321363 551.175558,101.634014 C553.707944,105.15663 553.046721,109.251067 549.556322,111.828813 C545.936163,114.504545 541.705167,113.876032 539.06856,110.205036 C536.418838,106.517943 537.387895,102.473199 540.716784,100.015136 Z M534.487594,80.6627699 C535.715219,80.5763236 536.52974,80.8137079 537.247343,81.4792074 C538.068051,82.2400723 537.856344,83.0517072 538.514834,83.6623201 C538.955432,84.0705389 539.50532,84.0643642 539.851749,83.8681447 L539.881993,83.895588 L539.526628,85.8282808 C538.452972,85.8111288 537.735369,85.5559063 537.078253,84.9439212 C536.199807,84.1295419 536.450006,83.3000689 535.762647,82.6633848 C535.338546,82.2695738 534.814778,82.2736903 534.243582,82.4795149 L534.214713,82.4520716 L534.487594,80.6627699 Z M521.033905,90.5430359 C521.630533,90.6335987 522.72206,90.3118263 523.837645,89.1132411 L529.278096,83.267823 C530.014945,82.4781427 530.635631,81.3124895 530.434235,80.4439098 L530.460354,80.4150943 L533.785113,83.4976605 C533.543162,83.8180607 533.34589,84.2050109 533.079882,85.4577966 L531.894187,90.9491964 C531.653611,92.0874063 531.15665,93.5597381 530.548336,95.0931313 L530.607449,95.1466457 C531.490019,93.7875173 532.413143,92.7371259 533.176112,91.9186301 L535.624487,89.2875059 C536.753819,88.0751991 537.040448,87.0344128 536.890604,86.432719 L536.918785,86.4039036 L540.301282,89.5399841 L540.274475,89.5701717 C539.66135,89.4652011 538.584945,89.8013813 537.470048,91.0006525 L532.095583,96.7726598 C530.979311,97.9705589 530.723613,99.0676039 530.872083,99.6692978 L530.845963,99.6981132 L527.754907,96.833035 C527.96249,96.2875999 528.172822,95.5040943 528.31648,94.7651841 L529.367453,89.5036217 C529.711132,87.7273556 530.134546,86.5109323 530.947692,84.7593652 L530.887205,84.7037925 C529.830733,86.3112825 528.97497,87.2875771 527.994108,88.3400268 L525.683205,90.8243295 C524.553873,92.0373223 524.266557,93.0787947 524.415027,93.6791164 L524.388907,93.709304 L521.00641,90.5718513 L521.033905,90.5430359 Z M517.688376,85.4154839 L515.143388,88.6792453 C514.582073,88.1607037 514.165175,87.8360706 513.170613,87.1802681 L507.224359,83.2592516 L507.244795,83.222213 C507.842214,83.1953418 508.842906,82.6368565 509.696458,81.1647505 L513.81231,74.068575 C514.678123,72.5783128 514.706734,71.4039687 514.444469,70.8106236 L514.465587,70.7735849 L520.515384,74.7628687 C521.187735,75.2066066 521.961586,75.6416296 522.384615,75.7963205 L520.804897,79.2009742 L520.7613,79.197343 C520.867568,78.0491438 520.201348,76.9902733 518.885937,76.1231324 L516.66316,74.6575627 L514.82867,77.818923 L516.108658,78.662824 C517.507175,79.585886 517.988788,79.8785642 518.810324,80.2707385 L516.571878,82.9651209 L516.537818,82.9440597 C516.721744,81.9469203 516.300758,81.2228504 515.357968,80.6004553 L513.808222,79.5786235 L511.462827,83.619471 L513.299361,84.83158 C514.781667,85.8091106 516.306207,85.994304 517.665896,85.3755402 L517.688376,85.4154839 Z M494.820513,74.9292174 L495.801404,71.77524 L495.845739,71.7732268 C496.359737,73.6266918 497.344092,74.6352935 498.884009,75.2144174 C500.407993,75.7848176 501.320306,75.4331827 501.735938,74.4608182 C502.27141,73.2186879 501.336238,72.2919554 500.288845,71.2793274 C498.949125,69.9801571 497.46324,68.5145642 498.535571,66.010172 C499.301719,64.2278392 501.584232,63.223935 504.468026,64.384196 C505.43437,64.7734102 506.261478,65.2330856 507.224359,65.9376976 L506.198441,68.989003 L506.161726,68.9735686 C505.872169,67.4630148 504.935612,66.749008 503.856354,66.3134907 C502.443898,65.7457747 501.517731,65.9215922 501.123573,66.840943 C500.675383,67.8857819 501.538512,68.7192372 502.539493,69.6922728 C503.909693,71.0256671 505.541049,72.6113795 504.381436,75.3137342 C503.523848,77.31349 501.294675,78.3388682 498.267488,77.1625018 C496.753895,76.5746541 495.447425,75.7526068 494.820513,74.9292174 Z M485.181636,73.5723774 C485.654085,73.3646943 486.327953,72.5403412 486.674872,70.9058113 L488.347274,63.030156 C488.698187,61.3743617 488.452833,60.2700263 488.106484,59.7944107 L488.115043,59.754717 L492.064103,61.0490151 L492.054973,61.0887088 C491.581383,61.2956831 490.909227,62.1200362 490.562307,63.7552749 L488.890476,71.631639 C488.538422,73.2867245 488.784917,74.3903511 489.129554,74.8666755 L489.121566,74.9056604 L485.173077,73.6127799 L485.181636,73.5723774 Z M469.11326,70.036706 C471.841259,70.3283952 473.494805,68.6517226 473.837476,65.2969368 C474.195627,61.77506 472.979039,59.9817117 470.068095,59.6698563 L468.276636,59.478998 L467.221181,69.8350444 L469.11326,70.036706 Z M463.126017,71.4404152 C463.671335,71.1408036 464.365824,70.1829107 464.54103,68.4738282 L465.379765,60.2424314 C465.537379,58.7018804 465.088459,57.4515781 464.59521,57.042493 L464.600135,57 L470.503646,57.6309129 C474.778238,58.0882527 477.314848,61.0764464 476.849041,65.618155 C476.383937,70.1814703 473.728412,72.6158146 468.699522,72.0770899 L463.121795,71.482188 L463.126017,71.4404152 Z M445.221891,64.8409452 C445.076642,63.7009679 445.891649,62.6730535 447.033467,62.5271299 C448.174477,62.3812064 449.173466,63.1519407 449.321943,64.315298 C449.467999,65.4568877 448.700601,66.47674 447.558783,66.6234698 C446.393565,66.7726181 445.36956,65.9809225 445.221891,64.8409452 Z M454.847148,271.330945 C454.763229,272.477296 453.759429,273.322741 452.612805,273.239649 C451.464567,273.157363 450.639902,272.203011 450.723821,271.030844 C450.806933,269.886106 451.763125,269.035014 452.911363,269.118913 C454.081387,269.203619 454.928646,270.182979 454.847148,271.330945 Z M359.457352,187.81221 C358.327956,188.027681 357.252648,187.275549 357.038717,186.146543 C356.822363,185.017537 357.53197,183.974075 358.687199,183.755375 C359.816595,183.540711 360.881408,184.246037 361.095339,185.375042 C361.315729,186.527451 360.586748,187.597545 359.457352,187.81221 Z" id="Fill-60" fill="#FF0C0E"></path>
            </g>
        </g>
    </g>
</svg>