<?xml version="1.0" encoding="UTF-8"?>
<svg width="226px" height="130px" viewBox="0 0 226 130" version="1.1" xmlns="http://www.w3.org/2000/svg" xmlns:xlink="http://www.w3.org/1999/xlink">
    <!-- Generator: Sketch 52.4 (67378) - http://www.bohemiancoding.com/sketch -->
    <title>logo</title>
    <desc>Created with Sketch.</desc>
    <defs>
        <polygon id="path-1" points="8.39881225e-06 0.186040577 50.9047691 0.186040577 50.9047691 120.37037 8.39881225e-06 120.37037"></polygon>
    </defs>
    <g id="Page-1" stroke="none" stroke-width="1" fill="none" fill-rule="evenodd">
        <g id="home" transform="translate(-847.000000, -1207.000000)">
            <g id="logo" transform="translate(847.000000, 1207.000000)">
                <g>
                    <g id="Group-3" transform="translate(0.000000, 9.629630)">
                        <mask id="mask-2" fill="white">
                            <use xlink:href="#path-1"></use>
                        </mask>
                        <g id="Clip-2"></g>
                        <path d="M40.590958,24.4364189 C40.3381315,24.5627911 40.0883069,24.6248102 39.8388159,24.6248102 L26.862947,24.6248102 C25.8579785,24.6248102 25.3583293,25.1269647 25.3583293,26.1286062 L25.3583293,97.903024 C25.3583293,98.5315507 25.6081539,98.9690187 26.1104714,99.2190956 L46.5774088,110.78132 C47.0770579,111.034064 47.3298844,111.439522 47.3298844,112.003029 C47.3298844,112.567203 47.0770579,113.037014 46.5774088,113.413463 L34.7299198,120.181212 C34.2276023,120.433623 33.7896588,120.433623 33.413421,120.181212 L11.4421994,107.679032 C10.9398819,107.429288 10.6900573,106.991487 10.6900573,106.36296 L10.6900573,26.1286062 C10.6900573,25.1269647 10.1874062,24.6248102 9.1857731,24.6248102 L1.47556606,24.6248102 C0.723090407,24.6248102 0.253126671,24.2807043 0.0650077588,23.5908254 C-0.123111153,22.9032805 0.0973615433,22.3687827 0.723090407,21.992667 L9.9379152,17.1661819 C10.4375644,16.9164384 10.6900573,16.4789705 10.6900573,15.8501103 L10.6900573,8.45716887 C10.6900573,7.95801529 10.9398819,7.51721299 11.4421994,7.14109726 L23.2896883,0.37334821 C23.7893375,0.123604699 24.291655,0.123604699 24.7943061,0.37334821 C25.2936217,0.626092644 25.5464482,1.06389402 25.5464482,1.68941982 L25.5464482,14.6607443 C25.5464482,15.6657202 25.9843917,16.1648738 26.862947,16.1648738 L49.4292114,16.1648738 C50.1816871,16.1648738 50.6519844,16.5409895 50.8397697,17.2928876 C51.0278886,18.0447856 50.8074159,18.6089592 50.1816871,18.9847415 L40.590958,24.4364189 Z" id="Fill-1" fill="#000000" mask="url(#mask-2)"></path>
                    </g>
                    <path d="M208.704716,8.87402596 L208.704716,65.6422091 C208.704716,66.010097 208.830735,66.3169466 209.089021,66.5610994 L225.326999,74.6108443 C225.71165,74.8579826 225.903976,75.1621785 225.903976,75.5294029 C225.903976,75.896959 225.71165,76.2041404 225.326999,76.4482932 L211.484412,84.1639866 C211.099761,84.2877216 210.715457,84.2877216 210.330458,84.1639866 C210.330458,84.1639866 192.746895,75.5148068 192.746895,75.1469189 L192.746895,17.6923877 L178.327331,9.79258457 C177.94268,9.67183508 177.588231,9.70102727 177.269887,9.88447361 C176.948418,10.0682517 176.78942,10.3435871 176.78942,10.7108115 L176.78942,76.0658093 C176.78942,76.4336971 169.942071,80.2134216 169.942071,80.2134216 C169.55742,80.3371566 169.173116,80.3371566 168.788465,80.2134216 C168.788465,80.2134216 160.831598,75.3967111 160.831598,75.029155 L160.831598,18.4271683 C160.831598,17.9395261 160.639273,17.6323447 160.254968,17.5086097 L146.411687,9.79258457 C146.027383,9.67183508 145.835405,9.39616798 145.835405,8.96591499 C145.835405,8.53831584 146.027383,8.26264873 146.411687,8.13924541 L160.254968,0.422888597 C160.639273,0.178735783 160.957964,0.178735783 161.215902,0.422888597 L176.212443,8.69057962 C176.596747,8.81365121 176.915438,8.81365121 177.173724,8.69057962 L182.557107,5.75112569 L192.170265,0.422888597 C192.554569,0.178735783 192.87326,0.178735783 193.131199,0.422888597 L208.512738,8.87402596 L208.704716,8.87402596 Z M147.652559,23.1035915 L147.652559,80.0354537 C147.652559,80.4044023 147.778035,80.7121367 148.03521,80.9569935 L162.243056,89.0299481 C162.626052,89.277799 162.817204,89.5828719 162.817204,89.9511551 C162.817204,90.319771 162.626052,90.6278381 162.243056,90.8726949 L148.459686,98.6106348 C148.076689,98.7347267 147.694039,98.7347267 147.311043,98.6106348 C147.311043,98.6106348 131.763401,89.936517 131.763401,89.5675684 L131.763401,31.9473791 L117.405882,24.0247985 C117.022886,23.9037009 116.669963,23.9329773 116.352988,24.1169525 C116.032903,24.3012605 115.874589,24.5773897 115.874589,24.945673 L115.874589,90.4891081 C115.874589,90.8580567 109.056703,94.6486792 109.056703,94.6486792 C108.673707,94.772771 108.291056,94.772771 107.90806,94.6486792 C107.90806,94.6486792 99.9854309,89.8180808 99.9854309,89.4494649 L99.9854309,32.6842783 C99.9854309,32.1952301 99.7939327,31.887163 99.4112822,31.7630712 L85.6275664,24.0247985 C85.2449159,23.9037009 85.0537634,23.627239 85.0537634,23.1957454 C85.0537634,22.7669134 85.2449159,22.4904515 85.6275664,22.3666923 L99.4112822,14.628087 C99.7939327,14.3832303 100.111253,14.3832303 100.368081,14.628087 L115.300094,22.9196162 C115.682745,23.0430426 116.000065,23.0430426 116.257239,22.9196162 L121.617458,19.971687 L131.189252,14.628087 C131.571903,14.3832303 131.889223,14.3832303 132.146052,14.628087 L147.461407,23.1035915 L147.652559,23.1035915 Z M73.8421394,101.785427 L73.8421394,49.8159186 C73.8421394,49.4376811 73.6460307,49.1871817 73.2541572,49.0601071 L59.1446494,41.1227588 C58.8811068,40.8715958 58.5566673,40.8715958 58.1647938,41.1227588 C57.7729204,41.3769079 57.5768117,41.6897833 57.5768117,42.0673573 L57.5768117,94.036866 C57.5768117,94.4151036 57.7729204,94.6689209 58.1647938,94.7930094 L72.2743016,102.730358 C72.5347478,102.984507 72.8622838,102.984507 73.2541572,102.730358 C73.6460307,102.479195 73.8421394,102.163333 73.8421394,101.785427 Z M103.906641,103.319944 C104.298171,103.574093 104.494624,103.886968 104.494624,104.264874 C104.494624,104.64278 104.298171,104.958973 103.906641,105.209804 L89.7971337,112.958034 C89.4045721,113.21152 89.0130428,113.21152 88.6211693,112.958034 L73.8421394,103.674956 L58.1647938,112.368116 C57.7729204,112.621933 57.381047,112.621933 56.9891735,112.368116 L41.8998101,103.864407 C41.5079367,103.740318 41.311828,103.486169 41.311828,103.108263 L41.311828,49.8159186 C41.311828,49.4376811 41.5079367,49.1871817 41.8998101,49.0601071 L57.5768117,40.1778284 L73.2541572,31.4846686 C73.6460307,31.2335055 74.0379041,31.2335055 74.4297775,31.4846686 L89.519485,39.9890414 C89.9110144,40.1157842 90.1074672,40.3669472 90.1074672,40.744853 L90.1074672,94.036866 C90.1074672,94.4151036 90.3028878,94.7309651 90.6954493,94.9821281 L103.906641,103.319944 Z" id="Fill-12" fill="#000000"></path>
                </g>
            </g>
        </g>
    </g>
</svg>