<?xml version="1.0" encoding="UTF-8"?>
<svg width="221px" height="129px" viewBox="0 0 221 129" version="1.1" xmlns="http://www.w3.org/2000/svg" xmlns:xlink="http://www.w3.org/1999/xlink">
    <!-- Generator: Sketch 52.4 (67378) - http://www.bohemiancoding.com/sketch -->
    <title>logo copy 3</title>
    <desc>Created with Sketch.</desc>
    <g id="Page-1" stroke="none" stroke-width="1" fill="none" fill-rule="evenodd">
        <g id="menu" transform="translate(-217.000000, -191.000000)">
            <g id="logo-copy-3" transform="translate(217.000000, 191.000000)">
                <g id="logo">
                    <g id="Group-3" transform="translate(0.000000, 9.555556)"></g>
                    <path d="M204.087355,8.80576422 L204.087355,65.137269 C204.087355,65.502327 204.210586,65.8068163 204.463157,66.049091 L220.341888,74.0369147 C220.71803,74.282152 220.9061,74.5840079 220.9061,74.9484075 C220.9061,75.3131363 220.71803,75.6179547 220.341888,75.8602294 L206.805554,83.5165713 C206.429412,83.6393545 206.05361,83.6393545 205.67713,83.5165713 C205.67713,83.5165713 188.482583,74.9339237 188.482583,74.5688657 L188.482583,17.5562924 L174.382036,9.717257 C174.005895,9.59743635 173.659288,9.62640398 173.347987,9.8084392 C173.03363,9.99080359 172.87815,10.264021 172.87815,10.6284206 L172.87815,75.4806877 C172.87815,75.8457456 166.182291,79.5963952 166.182291,79.5963952 C165.80615,79.7191785 165.430348,79.7191785 165.054206,79.5963952 C165.054206,79.5963952 157.273377,74.8167364 157.273377,74.4520077 L157.273377,18.2854208 C157.273377,17.8015297 157.085306,17.4967113 156.709504,17.373928 L143.172491,9.717257 C142.796689,9.59743635 142.608958,9.32388976 142.608958,8.89694641 C142.608958,8.47263648 142.796689,8.1990899 143.172491,8.07663583 L156.709504,0.419635608 C157.085306,0.177360892 157.396947,0.177360892 157.649179,0.419635608 L172.313938,8.623729 C172.689739,8.74585389 173.00138,8.74585389 173.253951,8.623729 L178.518233,5.70688626 L187.91871,0.419635608 C188.294512,0.177360892 188.606153,0.177360892 188.858385,0.419635608 L203.899624,8.80576422 L204.087355,8.80576422 Z M144.38591,22.9258715 L144.38591,79.4197964 C144.38591,79.7859069 144.50861,80.0912741 144.760094,80.3342474 L158.653608,88.3451023 C159.02813,88.5910467 159.215054,88.8937729 159.215054,89.2592232 C159.215054,89.6250036 159.02813,89.9307009 158.653608,90.1736742 L145.175179,97.8520915 C144.800656,97.9752288 144.426472,97.9752288 144.051949,97.8520915 C144.051949,97.8520915 128.848282,89.2446976 128.848282,88.8785871 L128.848282,31.70163 L114.808407,23.8399924 C114.433884,23.7198263 114.088769,23.7488774 113.778807,23.9314375 C113.465803,24.1143277 113.310992,24.3883329 113.310992,24.7537832 L113.310992,89.7930381 C113.310992,90.1591486 106.643944,93.9206124 106.643944,93.9206124 C106.269421,94.0437497 105.895237,94.0437497 105.520714,93.9206124 C105.520714,93.9206124 97.7733638,89.1271725 97.7733638,88.7613921 L97.7733638,32.4328607 C97.7733638,31.9475745 97.5861024,31.6418771 97.2119175,31.5187398 L83.7331512,23.8399924 C83.3589664,23.7198263 83.172043,23.445491 83.172043,23.0173166 C83.172043,22.5917833 83.3589664,22.317448 83.7331512,22.1946408 L97.2119175,14.5155633 C97.5861024,14.27259 97.896402,14.27259 98.1475486,14.5155633 L112.749207,22.7433115 C113.123392,22.8657885 113.433692,22.8657885 113.685177,22.7433115 L118.926806,19.8180586 L128.286835,14.5155633 C128.66102,14.27259 128.97132,14.27259 129.222466,14.5155633 L144.198986,22.9258715 L144.38591,22.9258715 Z M72.2084638,101.002463 L72.2084638,49.4327193 C72.2084638,49.0573912 72.0166937,48.8088187 71.63349,48.6827217 L57.8361395,40.8064298 C57.5784275,40.5571989 57.2611658,40.5571989 56.8779621,40.8064298 C56.4947584,41.058624 56.3029884,41.3690927 56.3029884,41.7437622 L56.3029884,93.3135055 C56.3029884,93.6888336 56.4947584,93.9406984 56.8779621,94.0638324 L70.6753127,101.940124 C70.9299967,102.192318 71.2502864,102.192318 71.63349,101.940124 C72.0166937,101.690893 72.2084638,101.377461 72.2084638,101.002463 Z M101.607822,102.525175 C101.990689,102.777369 102.182796,103.087838 102.182796,103.462837 C102.182796,103.837835 101.990689,104.151597 101.607822,104.400498 L87.8104714,112.089126 C87.4265949,112.340662 87.0437277,112.340662 86.660524,112.089126 L72.2084638,102.877457 L56.8779621,111.503746 C56.4947584,111.755611 56.1115548,111.755611 55.7283511,111.503746 L40.9728232,103.06545 C40.5896195,102.942316 40.3978495,102.690122 40.3978495,102.315123 L40.3978495,49.4327193 C40.3978495,49.0573912 40.5896195,48.8088187 40.9728232,48.6827217 L56.3029884,39.8687682 L71.63349,31.2424788 C72.0166937,30.9932478 72.3998974,30.9932478 72.783101,31.2424788 L87.5389654,39.6814334 C87.9218326,39.8072013 88.1139391,40.0564322 88.1139391,40.431431 L88.1139391,93.3135055 C88.1139391,93.6888336 88.3050363,94.0022654 88.6889128,94.2514964 L101.607822,102.525175 Z M39.692928,33.804002 C39.445695,33.9294021 39.2013975,33.9909441 38.9574262,33.9909441 L26.2686341,33.9909441 C25.2858993,33.9909441 24.7973043,34.4892359 24.7973043,35.4831725 L24.7973043,106.705479 C24.7973043,107.329171 25.0416018,107.763274 25.5328061,108.011427 L45.5469351,119.484711 C46.0355301,119.735512 46.2827631,120.137851 46.2827631,120.697023 C46.2827631,121.256857 46.0355301,121.723054 45.5469351,122.096607 L33.9615588,128.812297 C33.4703545,129.062766 33.0421,129.062766 32.674186,128.812297 L11.1890534,116.406287 C10.6978491,116.158465 10.4535516,115.724031 10.4535516,115.100339 L10.4535516,35.4831725 C10.4535516,34.4892359 9.96202115,33.9909441 8.98254803,33.9909441 L1.44292079,33.9909441 C0.707092832,33.9909441 0.247526523,33.6494852 0.0635695341,32.9649131 C-0.120387455,32.282657 0.0952075269,31.7522707 0.707092832,31.3790482 L9.71804982,26.5896899 C10.2066448,26.3418675 10.4535516,25.9077647 10.4535516,25.2837419 L10.4535516,17.9476693 C10.4535516,17.4523553 10.6978491,17.0149438 11.1890534,16.6417213 L22.7744297,9.92603186 C23.2630247,9.67820945 23.754229,9.67820945 24.2457595,9.92603186 C24.7340283,10.1768321 24.9812613,10.6112658 24.9812613,11.2319798 L24.9812613,24.1035249 C24.9812613,25.1007702 25.4095158,25.5960842 26.2686341,25.5960842 L48.3356448,25.5960842 C49.0714728,25.5960842 49.5313652,25.9693067 49.7149961,26.7154209 C49.898953,27.4615351 49.6833581,28.0213689 49.0714728,28.3942605 L39.692928,33.804002 Z" id="Fill-12" fill="#FFFFFF"></path>
                </g>
            </g>
        </g>
    </g>
</svg>