<?xml version="1.0" encoding="UTF-8"?>
<svg width="50px" height="72px" viewBox="0 0 50 72" version="1.1" xmlns="http://www.w3.org/2000/svg" xmlns:xlink="http://www.w3.org/1999/xlink">
    <!-- Generator: Sketch 52.5 (67469) - http://www.bohemiancoding.com/sketch -->
    <title>Untitled</title>
    <desc>Created with Sketch.</desc>
    <g id="Page-1" stroke="none" stroke-width="1" fill="none" fill-rule="evenodd">
        <g id="noun_Magic-Crysal_1329421" fill="#000000" fill-rule="nonzero">
            <path d="M11.59,20.11 C11.87,20.11 12.16,20.11 12.44,20.11 C15.13,19.95 15.87,20.92 16.82,23.22 C16.9460024,23.6055383 17.0429404,23.9999758 17.11,24.4 C17.2408781,25.2888778 17.9649667,25.9715899 18.86,26.05 C19.765872,26.25774 20.6425399,26.5768337 21.47,27 C23.31,27.81 23.62,29.3 22.32,30.83 C22.0578129,31.1150355 21.866025,31.4575138 21.76,31.83 C21.3998265,33.1961267 21.1622185,34.5916556 21.05,36 C20.87,42.23 20.69,48.46 20.72,54.69 C20.72,56.85 20.6,58.69 18.96,60.33 C17.7306794,61.7983459 16.5887109,63.337666 15.54,64.94 C14.9,65.76 14.07,66.41 13.37,67.18 C12.44,68.18 11.6,69.32 10.66,70.34 C9.72,71.36 8.97,71.34 8.08,70.34 C7.19,69.34 6.2,67.86 5.27,66.61 C4.93,66.15 4.58,65.68 4.27,65.21 C3.09,63.48 1.88,61.77 0.76,60.01 C0.525659053,59.5465138 0.421949189,59.0279645 0.46,58.51 C0.46,55.31 0.61,52.11 0.67,48.91 C0.67,47.91 0.67,46.91 0.59,45.91 C0.388856219,41.3846434 0.49576966,36.8508452 0.91,32.34 C0.928842337,31.9009034 0.817514547,31.4660292 0.59,31.09 C-0.3,29.58 -0.12,28.72 1.36,27.8 C2.82273767,26.9112392 4.06678628,25.7047855 5,24.27 C5.41849679,23.5003344 6.01511286,22.8419994 6.74,22.35 C8.08,21.69 8.57,20.5 9.14,19.35 C11.1684915,15.1359023 14.1300379,11.4390991 17.8,8.54 C19.7457999,7.07277581 21.786965,5.73649758 23.91,4.54 C28.49,1.85 33.58,0.97 38.78,0.54 C41.1187172,0.408383041 43.4562105,0.819069998 45.61,1.74 C47.45,2.46 48.89,3.74 49.01,5.74 C49.2586997,7.84168443 48.1572772,9.87230698 46.26,10.81 C44.5233164,11.7657733 42.5902602,12.3097661 40.61,12.4 C36.8314537,12.4934804 33.0600114,12.777173 29.31,13.25 C26.6706109,13.6921711 24.0743097,14.3613209 21.55,15.25 C19.01,16.07 16.55,17.08 14.07,18.11 C13.1590436,18.5640414 12.283274,19.085492 11.45,19.67 L11.59,20.11 Z M5,59 C5.21307913,57.8624705 5.36330692,56.7140626 5.45,55.56 C5.61,49.1066667 5.73333333,42.6533333 5.82,36.2 C5.95864943,35.348582 5.81833982,34.4751547 5.42,33.71 C4.9410864,34.5953157 4.71288675,35.5945536 4.76,36.6 C4.47333333,43.06 4.22,49.5266667 4,56 C3.8830019,57.0976465 4.24781363,58.1920817 5,59 C4.65,60.4 5.65,61.43 6,62.61 C6.77688959,64.8197833 7.97577505,66.857549 9.53,68.61 C10.6939734,67.4966472 11.6371737,66.1734525 12.31,64.71 C13.62,62.32 14.89,59.89 16.31,57.54 C16.6986001,57.0437843 16.9379253,56.4472056 17,55.82 C17,53.33 17.12,50.82 17.09,48.35 C17.09,43.81 16.95,39.27 16.86,34.74 C16.86,34.22 17.13,33.55 16.1,33.19 C16.02,33.78 15.9,34.32 15.87,34.86 C15.81,36.25 15.87,37.65 15.74,39.05 C15.42,44.33 15.0866667,49.61 14.74,54.89 C14.65,56.28 14.55,57.67 14.35,59.05 C14.2217708,59.6013868 13.9911042,60.1237788 13.67,60.59 C12.67,62.28 11.67,63.94 10.67,65.59 C10.41,66.02 10.18,66.47 9.84,67.08 C9.50272861,66.782198 9.2007525,66.446669 8.94,66.08 C8.51,65.26 8.17,64.39 7.76,63.56 C6.93,62 6.4,60.23 5,59 Z M11.63,17.6 C11.89,17.6 12,17.7 12.09,17.67 C12.3093484,17.5942587 12.5177979,17.4900339 12.71,17.36 C14.4709974,16.2268126 16.4120602,15.4016918 18.45,14.92 C20.85,14.22 23.3,13.7 25.71,13.03 C30.228151,11.9659283 34.8407596,11.3529237 39.48,11.2 C41.3222544,10.9843402 43.1423821,10.6096081 44.92,10.08 C47.1,9.54 48.09,6.25 46.82,4.48 C45.9754671,3.28638494 44.704533,2.46296284 43.27,2.18 C38.12,0.95 33.22,2.18 28.35,3.68 C25.6085437,4.66514843 23.0376138,6.07207462 20.73,7.85 C17.2635223,10.1202482 14.3102771,13.0905248 12.06,16.57 C11.8829854,16.9057013 11.7292888,17.2531892 11.6,17.61 L11.63,17.6 Z M13.57,21.42 C13.18,21.3 13,21.17 12.87,21.21 C11.13,21.8 9.4,22.4 7.67,23.01 C7.57,23.01 7.5,23.17 7.41,23.24 C6.39154496,23.9278288 5.67571296,24.9801018 5.41,26.18 C5.15,27.67 4.6,28.42 2.98,28.37 C2.48,28.37 1.92,28.95 1.46,29.37 C1.32245275,29.6082388 1.32245275,29.9017612 1.46,30.14 C1.70368302,30.3479857 2.02093488,30.4489295 2.34,30.42 C3.54,30.26 4.72,29.91 5.93,29.85 C9.3,29.67 12.67,29.53 16.04,29.5 C17.65,29.5 19.25,29.79 20.86,29.9 C21.2369851,29.8806821 21.6099803,29.8134758 21.97,29.7 C21.9050646,29.2810711 21.7804663,28.8736012 21.6,28.49 C21.3746039,28.2222931 21.0699277,28.0331837 20.73,27.95 C19.43,27.54 18.12,27.18 16.65,26.76 L15.89,23.94 C14.56,24.17 14.62,25.94 13.21,25.79 C13.37,24.33 15.21,23.63 14.78,21.65 C14.07,22.58 13.58,23.27 13.05,23.92 C12.52,24.57 12.51,25.61 11,25.48 L13.57,21.42 Z" id="Shape"></path>
        </g>
    </g>
</svg>